Coordinates
version=1
nRows=19
nColumns=36
inDegrees=yes

Units are S.I. units (second, meters, Newtons, ...)
If the header above contains a line with 'inDegrees', this indicates whether rotational values are in degrees (yes) or radians (no).

endheader
time	pelvis_tilt	pelvis_list	pelvis_rotation	pelvis_tx	pelvis_ty	pelvis_tz	hip_flexion_r	hip_adduction_r	hip_rotation_r	knee_angle_r	knee_angle_r_beta	ankle_angle_r	subtalar_angle_r	mtp_angle_r	hip_flexion_l	hip_adduction_l	hip_rotation_l	knee_angle_l	knee_angle_l_beta	ankle_angle_l	subtalar_angle_l	mtp_angle_l	lumbar_extension	lumbar_bending	lumbar_rotation	arm_flex_r	arm_add_r	arm_rot_r	elbow_flex_r	pro_sup_r	arm_flex_l	arm_add_l	arm_rot_l	elbow_flex_l	pro_sup_l
      1.60000000	    -29.38522937	      2.32100344	     -4.59029195	     -0.31768989	      0.71523062	     -0.54621726	     93.71988779	     -5.81890703	     -5.82365133	     89.82502958	      1.56774252	     26.07225222	    -13.13481040	     -7.46220022	     92.50869911	    -12.21484600	     -1.71560108	     94.72174291	      1.65320629	     26.10242102	      0.07176476	     -7.46220022	    -44.54224553	      0.78669501	      5.54151229	     15.25681994	    -23.55875978	    -26.10131011	     74.30528686	    101.36667101	     24.33298307	    -29.15804201	     -4.45351595	     93.56314640	    103.59882594
      1.61000000	    -29.73729789	      1.95782122	     -5.02707724	     -0.31734498	      0.70683869	     -0.54415963	     94.79388779	     -5.18662436	     -6.14694846	     91.01007718	      1.58842550	     26.42696213	    -13.33146905	     -7.46285616	     94.02845819	    -13.45345649	     -1.29449941	     96.30367529	      1.68081622	     26.24035852	      0.78412322	     -7.46285616	    -45.58281418	      0.70143069	      5.65856826	     20.36604952	    -24.32166069	    -21.64755758	     74.24891013	    101.68030642	     30.85042405	    -30.93736306	      0.10167486	     91.60466624	    103.64836602
      1.62000000	    -30.51227372	      1.80778383	     -5.13576383	     -0.31773133	      0.69691868	     -0.54306541	     96.58449506	     -4.94701943	     -6.23191806	     92.41673066	      1.61297623	     26.71164859	    -13.41715583	     -7.46506609	     96.12110191	    -14.24799366	     -0.92902082	     97.92985962	      1.70919849	     26.69604963	      2.30100900	     -7.46506609	    -45.79516097	      0.60708748	      6.75372955	     23.58657446	    -25.47712966	    -19.15336151	     75.27469649	    102.54676495	     38.96984661	    -31.36316827	      6.79769767	     88.01013780	    104.16373431
      1.63000000	    -31.25386557	      1.77744025	     -5.03851982	     -0.31822087	      0.68743502	     -0.54278506	     98.35300184	     -4.94587444	     -6.11451619	     93.77514278	      1.63668500	     27.00693175	    -13.48801525	     -7.46546687	     98.15420544	    -14.69916146	     -0.70864072	     99.42020928	      1.73520999	     26.24223042	      2.85041469	     -7.46546687	    -45.92277667	      0.71713197	      6.18370576	     28.56096990	    -25.89021069	    -14.71944129	     74.92143630	    102.93180449	     45.17345088	    -32.45529017	     11.24248671	     85.81672703	    104.35343465
      1.64000000	    -31.10177413	      1.87322631	     -5.17070002	     -0.31759531	      0.68051106	     -0.54190427	     99.06935746	     -4.76769499	     -5.89676100	     95.10944524	      1.65997297	     27.51154810	    -13.37723723	     -7.46621643	     98.94837293	    -15.63449115	     -0.88112987	    100.81305243	      1.75951969	     26.36129309	      3.81348814	     -7.46621643	    -46.87301654	      0.32755136	      5.96010173	     33.40727183	    -26.05805046	    -11.10022109	     74.00595558	    103.53341453	     52.09052156	    -32.82329318	     16.37296548	     83.15578789	    104.60791458
      1.65000000	    -30.99017675	      1.87760978	     -5.23290471	     -0.31673025	      0.67378471	     -0.54127995	     99.71988408	     -4.68960480	     -5.78952339	     96.34615250	      1.68155758	     28.12957438	    -13.20294029	     -7.46712963	     99.73651719	    -16.55572052	     -1.03155877	    102.09738076	      1.78193545	     26.63229479	      5.02018299	     -7.46712963	    -47.69162696	      0.08710305	      5.75532051	     37.93776059	    -25.89365717	     -8.17394653	     73.32988467	    104.38435699	     58.56553407	    -32.83142721	     21.20043945	     80.63812561	    104.84291078
      1.66000000	    -31.57924707	      1.73892243	     -4.69355706	     -0.31618088	      0.66530048	     -0.54265038	    101.09453616	     -5.38099885	     -5.79389218	     97.60979975	      1.70361239	     28.68274421	    -13.17729068	     -7.46753554	    101.30559869	    -16.42698951	     -0.91145805	    103.24459753	      1.80195816	     26.68979730	      5.58846975	     -7.46753554	    -47.47107424	      0.64638274	      5.10136549	     42.11485218	    -25.39732816	     -5.47095897	     72.62949577	    104.87118356	     63.56734434	    -32.49174585	     24.59811651	     78.79807215	    105.01230316
      1.67000000	    -32.00215329	      1.79119813	     -3.94723394	     -0.31517917	      0.65721451	     -0.54497324	    102.37219984	     -6.39042364	     -5.47498646	     99.03876641	      1.72855256	     29.50251955	    -12.54269906	     -7.46841719	    102.34490556	    -15.79227665	     -1.10603782	    104.19899398	      1.81861552	     27.43923252	      5.70283977	     -7.46841719	    -47.21397715	      1.16040181	      4.25066979	     45.84561017	    -24.99025023	     -2.97342188	     71.83916052	    105.78841553	     68.20261108	    -31.84098545	     27.81547791	     77.31937019	    105.47517733
      1.68000000	    -32.03291201	      1.79148461	     -3.49629520	     -0.31331953	      0.65108556	     -0.54667154	    103.00991110	     -6.99853049	     -5.19666029	    100.22305283	      1.74922226	     30.19462329	    -12.22573553	     -7.46907492	    102.65781442	    -15.39364307	     -1.29013998	    104.98396049	      1.83231577	     28.57983508	      5.73112002	     -7.46907492	    -47.30766006	      1.55791682	      3.64593899	     49.36181400	    -24.29155972	     -1.04853833	     71.33381494	    106.50314026	     72.03169861	    -30.73645961	     29.64253970	     76.19074788	    105.86272819
      1.69000000	    -31.69161886	      1.72259415	     -3.76978212	     -0.31085225	      0.64661590	     -0.54567371	    103.02144845	     -6.60797663	     -5.17712537	    101.10216017	      1.76456558	     30.81869192	    -12.22005281	     -7.46977497	    102.41387307	    -15.98566684	     -1.27035931	    105.77353073	      1.84609637	     30.17307227	      6.11562524	     -7.46977497	    -47.76135701	      1.32677430	      3.63119531	     52.47773176	    -23.29714827	      0.23034080	     71.06622175	    107.42094311	     75.58582668	    -29.55599021	     31.04492458	     75.39821701	    106.28437938
      1.70000000	    -31.45704386	      1.62922837	     -4.43846433	     -0.30854306	      0.64210187	     -0.54308384	    103.11359358	     -5.66882706	     -5.32868641	    101.84881602	      1.77759718	     31.20442261	    -12.53373253	     -7.47421404	    102.33677126	    -17.04210097	     -1.06946678	    106.61148752	      1.86072148	     31.87293002	      6.40856753	     -7.47421404	    -47.86638380	      0.68379044	      4.07823980	     54.78093172	    -22.48613288	      0.90621878	     71.18077909	    111.81275149	     78.66249429	    -28.03787991	     31.89658611	     74.75149862	    107.96666546
      1.71000000	    -31.35284855	      1.61474394	     -4.60892048	     -0.30638922	      0.63773853	     -0.54221389	    103.41229771	     -5.38842807	     -5.28367007	    102.69080518	      1.79229266	     31.46943811	    -12.77387052	     -7.47451598	    102.36572206	    -17.27937663	     -1.06810934	    107.31315022	      1.87296780	     33.10008491	      5.98173325	     -7.47451598	    -47.60533726	      0.45059589	      4.09166396	     56.77833858	    -22.11383999	      2.20260400	     71.86779841	    111.98805261	     80.97776760	    -26.55518023	     32.13897777	     74.88497131	    108.04782190
      1.72000000	    -31.10841010	      1.53923091	     -4.19148455	     -0.30391259	      0.63461814	     -0.54347339	    103.50973128	     -5.92007268	     -5.14028801	    103.59096570	      1.80800343	     31.58564935	    -12.85623638	     -7.47466833	    102.20785701	    -16.62452860	     -1.11493493	    107.87306726	      1.88274020	     33.71152839	      5.65210364	     -7.47466833	    -47.37942009	      0.79407706	      3.75986110	     58.61539223	    -21.91460513	      3.10633376	     72.85255904	    112.10331160	     82.87796003	    -25.05865235	     32.01463601	     75.33381097	    108.11229227
      1.73000000	    -30.51002855	      1.45998764	     -3.92513011	     -0.30094685	      0.63331262	     -0.54444578	    103.06539742	     -6.30206145	     -4.99719025	    104.30520501	      1.82046925	     31.88642019	    -12.55392495	     -7.47504331	    101.61124523	    -16.15658647	     -1.13875062	    108.35996835	      1.89123823	     34.06590962	      5.07001938	     -7.47504331	    -47.47271539	      1.02706203	      3.56758186	     60.33555719	    -22.07453235	      4.36316561	     74.35131367	    112.24844410	     84.70248423	    -23.64533734	     31.83432075	     76.01593532	    108.28037461
      1.74000000	    -30.01643299	      1.28573327	     -3.89084569	     -0.29784494	      0.63245220	     -0.54448339	    102.58949447	     -6.33625380	     -5.03785815	    104.85741622	      1.83010716	     32.13295007	    -12.48575930	     -7.47525275	    101.22408004	    -15.96145744	     -0.80629228	    108.88268346	      1.90036132	     33.97791556	      4.80378406	     -7.47525275	    -47.26852949	      1.17526876	      3.51829552	     61.66671902	    -21.96392827	      4.94966393	     76.26111939	    112.41669586	     86.28109450	    -22.75346995	     31.78378191	     77.29673712	    108.48599503
      1.75000000	    -29.51239521	      1.24996926	     -3.87724465	     -0.29454099	      0.63264506	     -0.54437377	    101.98369273	     -6.23151080	     -4.90797980	    105.25270777	      1.83700630	     32.52473440	    -12.59629868	     -7.47544300	    100.66630659	    -15.70974398	     -0.50994623	    109.25951482	      1.90693827	     33.79220916	      4.58332783	     -7.47544300	    -46.95098922	      1.17858362	      3.35917589	     62.63665714	    -22.13003238	      5.59979470	     78.92495878	    112.64272318	     87.91768130	    -22.23624067	     32.00684952	     78.94977725	    108.76843120
      1.76000000	    -28.57295598	      1.45681658	     -3.75518302	     -0.29055961	      0.63559237	     -0.54451269	    100.68525158	     -6.17833217	     -4.44941823	    105.42078413	      1.83993978	     33.09167281	    -12.61226658	     -7.47587224	     99.21716214	    -15.27707360	     -0.61442893	    109.29892435	      1.90762610	     33.71652435	      4.16455263	     -7.47587224	    -47.14198840	      0.93455089	      3.09582612	     63.43284610	    -22.89439876	      6.00810681	     82.46878705	    112.81083054	     90.06170281	    -21.76836229	     32.86693768	     80.54491115	    109.25878229
      1.77000000	    -27.18849673	      1.63215998	     -3.56482391	     -0.28595114	      0.64086643	     -0.54481674	     98.67732241	     -6.20759498	     -3.99677296	    105.41329374	      1.83980905	     33.54847564	    -12.94896469	     -7.47604781	     97.05155541	    -14.75452157	     -0.80807574	    109.12848916	      1.90465144	     33.62919544	      4.02304465	     -7.47604781	    -47.79703104	      0.88708562	      2.62256404	     64.45702228	    -23.62214032	      6.58710712	     86.34559481	    112.99230847	     92.11019952	    -21.74835137	     33.19743927	     82.54282860	    109.60150821
      1.78000000	    -26.15515788	      1.87567126	     -3.45894634	     -0.28159185	      0.64600021	     -0.54484695	     97.04902676	     -6.18519366	     -3.57272112	    105.29027010	      1.83766188	     33.83697195	    -13.13928061	     -7.47621752	     95.18065231	    -14.32625882	     -1.08489835	    108.84837755	      1.89976257	     33.63684195	      3.78488848	     -7.47621752	    -47.89869820	      0.69505850	      2.21862304	     65.18937591	    -24.90100739	      7.23084966	     90.78621103	    113.17662013	     94.29137395	    -22.01797795	     34.00766609	     84.57971508	    109.98083916
